<?xml version="1.0" encoding="utf-8"?>
<!-- Generator: Adobe Illustrator 24.1.3, SVG Export Plug-In . SVG Version: 6.00 Build 0)  -->
<svg version="1.1" id="Layer_1" xmlns="http://www.w3.org/2000/svg" xmlns:xlink="http://www.w3.org/1999/xlink" x="0px" y="0px"
	 viewBox="0 0 595.3 198.4" style="enable-background:new 0 0 595.3 198.4;" xml:space="preserve">
<style type="text/css">
	.st0{fill:#FFFFFF;}
	.st1{fill:url(#SVGID_1_);}
	.st2{fill:url(#SVGID_2_);}
	.st3{fill:url(#SVGID_3_);}
	.st4{fill:url(#SVGID_4_);}
	.st5{fill:url(#SVGID_5_);}
	.st6{fill:url(#SVGID_6_);}
	.st7{fill:url(#SVGID_7_);}
	.st8{fill:url(#SVGID_8_);}
	.st9{fill:url(#SVGID_9_);}
</style>
<g>
	<path class="st0" d="M264.7,69.9c5.7,0,10.5,0.7,14.3,2.1c3.9,1.4,7,3.4,9.3,6c2.3,2.6,4,5.7,5,9.3c1,3.6,1.5,7.6,1.5,12v45
		c-2.6,0.6-6.6,1.3-12,2.1c-5.3,0.8-11.4,1.2-18.1,1.2c-4.4,0-8.5-0.4-12.2-1.3c-3.7-0.8-6.8-2.2-9.4-4.1c-2.6-1.9-4.6-4.4-6.1-7.4
		c-1.5-3-2.2-6.8-2.2-11.2c0-4.3,0.8-7.8,2.5-10.8c1.7-2.9,3.9-5.3,6.7-7.2c2.8-1.8,6.1-3.2,9.9-4c3.7-0.8,7.6-1.2,11.7-1.2
		c1.9,0,3.9,0.1,6,0.4c2.1,0.2,4.3,0.6,6.7,1.2v-2.8c0-2-0.2-3.9-0.7-5.7c-0.5-1.8-1.3-3.4-2.5-4.8c-1.2-1.4-2.7-2.4-4.7-3.2
		c-1.9-0.8-4.4-1.1-7.3-1.1c-4,0-7.6,0.3-10.9,0.9c-3.3,0.6-6,1.2-8.1,2l-2.1-13.9c2.2-0.8,5.3-1.5,9.5-2.3
		C255.5,70.3,259.9,69.9,264.7,69.9z M266.1,133.9c5.3,0,9.3-0.3,12.1-0.8v-19c-0.9-0.3-2.3-0.6-4.1-0.8c-1.8-0.3-3.8-0.4-6-0.4
		c-1.9,0-3.8,0.1-5.7,0.4c-1.9,0.3-3.7,0.8-5.2,1.6c-1.6,0.8-2.8,1.8-3.8,3.2c-0.9,1.4-1.4,3.1-1.4,5.2c0,4.1,1.3,6.9,3.8,8.4
		C258.3,133.1,261.7,133.9,266.1,133.9z"/>
	<path class="st0" d="M332.1,50.1c0,3.2-1,5.8-3.1,7.7c-2.1,1.9-4.5,2.8-7.4,2.8c-2.9,0-5.4-0.9-7.5-2.8c-2.1-1.9-3.1-4.4-3.1-7.7
		c0-3.3,1-5.9,3.1-7.8c2.1-1.9,4.6-2.8,7.5-2.8c2.8,0,5.3,0.9,7.4,2.8C331,44.2,332.1,46.8,332.1,50.1z M330.2,146H313V71.8h17.2
		V146z"/>
	<path class="st0" d="M371.2,146c-4.7-9.7-9.6-20.9-14.6-33.6c-5-12.6-9.5-26.2-13.6-40.6h18.3c1,4.2,2.3,8.6,3.6,13.4
		c1.4,4.8,2.8,9.6,4.4,14.3c1.6,4.8,3.2,9.4,4.8,13.9c1.7,4.5,3.2,8.5,4.6,12.1c1.4-3.6,2.9-7.6,4.6-12.1c1.6-4.5,3.2-9.1,4.8-13.9
		c1.6-4.8,3.1-9.6,4.5-14.3c1.4-4.8,2.7-9.2,3.7-13.4h17.7c-4.1,14.5-8.6,28-13.6,40.6c-5,12.6-9.9,23.8-14.6,33.6H371.2z"/>
	<path class="st0" d="M418,109.2c0-6.5,1-12.2,2.9-17.2c1.9-4.9,4.5-9,7.7-12.3c3.2-3.3,6.9-5.7,11.1-7.4c4.2-1.7,8.4-2.5,12.8-2.5
		c10.2,0,18.2,3.2,23.9,9.5c5.7,6.3,8.6,15.8,8.6,28.4c0,0.9,0,2-0.1,3.2c0,1.2-0.1,2.2-0.2,3.2h-48.9c0.5,6,2.6,10.6,6.3,13.8
		c3.7,3.3,9.2,4.9,16.2,4.9c4.2,0,8-0.4,11.4-1.1c3.5-0.8,6.2-1.6,8.2-2.4l2.3,14c-0.9,0.5-2.2,1-3.9,1.5c-1.7,0.5-3.5,1-5.7,1.4
		c-2.1,0.4-4.4,0.8-6.9,1.1c-2.5,0.3-5,0.4-7.5,0.4c-6.5,0-12.2-1-17-2.9c-4.8-1.9-8.8-4.6-11.9-8.1c-3.1-3.5-5.4-7.5-7-12.2
		C418.8,119.9,418,114.8,418,109.2z M467.8,101.6c0-2.4-0.3-4.6-1-6.7c-0.7-2.1-1.6-4-2.9-5.5c-1.3-1.6-2.8-2.8-4.7-3.7
		c-1.8-0.9-4-1.3-6.6-1.3c-2.6,0-5,0.5-7,1.5c-2,1-3.7,2.3-5,3.9c-1.4,1.6-2.4,3.5-3.2,5.5c-0.8,2.1-1.3,4.2-1.6,6.4H467.8z"/>
	<path class="st0" d="M500.3,74.2c3.3-0.9,7.6-1.8,12.9-2.7c5.3-0.9,11.2-1.3,17.6-1.3c6.1,0,11.1,0.8,15.2,2.5c4.1,1.7,7.3,4,9.7,7
		c2.4,3,4.1,6.6,5.1,10.8c1,4.2,1.5,8.8,1.5,13.8V146h-17.2v-39c0-4-0.3-7.4-0.8-10.1c-0.5-2.8-1.4-5.1-2.6-6.8
		c-1.2-1.7-2.8-3-4.8-3.8c-2-0.8-4.5-1.2-7.4-1.2c-2.2,0-4.4,0.1-6.8,0.4c-2.4,0.3-4.1,0.5-5.2,0.7V146h-17.2V74.2z"/>
</g>
<g>
	<g>
		<linearGradient id="SVGID_1_" gradientUnits="userSpaceOnUse" x1="80.3123" y1="153.1429" x2="151.6517" y2="56.7027">
			<stop  offset="0" style="stop-color:#FF7700"/>
			<stop  offset="0.7423" style="stop-color:#FF3554"/>
		</linearGradient>
		<path class="st1" d="M157.4,122.1c2.8,0,5.5,0.5,8,1.4c4-4.6,6.1-9.6,6.1-14.8c0-8.5-5.8-16.7-16.2-23.1
			C144.1,78.8,129.2,75,113.2,75h0c-16,0-31,3.8-42.1,10.6c-10.5,6.4-16.2,14.6-16.2,23.1c0,5.2,2.1,10.2,6.1,14.8
			c2.5-0.9,5.2-1.4,8-1.4c6.3,0,12.2,2.4,16.6,6.9c3.1,3.1,5.2,6.9,6.2,11.1c6.7,1.6,13.9,2.4,21.4,2.4s14.6-0.8,21.4-2.4
			c1-4.1,3.1-8,6.2-11.1C145.2,124.6,151.1,122.1,157.4,122.1z M113.2,102.5c-7.2,0-13.1-5.9-13.1-13.1h26.2
			C126.3,96.6,120.4,102.5,113.2,102.5z"/>
	</g>
	<g>
		<linearGradient id="SVGID_2_" gradientUnits="userSpaceOnUse" x1="31.0052" y1="116.6691" x2="102.3445" y2="20.2289">
			<stop  offset="0" style="stop-color:#FF7700"/>
			<stop  offset="0.7423" style="stop-color:#FF3554"/>
		</linearGradient>
		<path class="st2" d="M67.8,79.4c1.3-0.8,2.6-1.5,3.9-2.2l-0.1,0c-3.3-2.5-7.2-3.7-11.1-3.7c-5.6,0-11.1,2.5-14.7,7.3l-1.5,2.1
			l10.4,7.8C58,86.6,62.4,82.8,67.8,79.4z"/>
	</g>
	<g>
		<linearGradient id="SVGID_3_" gradientUnits="userSpaceOnUse" x1="39.4791" y1="122.9375" x2="110.8184" y2="26.4973">
			<stop  offset="0" style="stop-color:#FF7700"/>
			<stop  offset="0.7423" style="stop-color:#FF3554"/>
		</linearGradient>
		<path class="st3" d="M54.9,126.8c-3.5-4.5-5.7-9.4-6.3-14.5c-0.2-1.2-0.3-2.4-0.3-3.6c0-6,2-11.7,5.7-16.9h-1.3
			c-10.2,0-18.4,8.3-18.4,18.4v2.6l13.7,0c-3.6,3-5.9,7.1-6.5,11.7c-0.7,4.9,0.6,9.7,3.6,13.6l1.1,1.5c1-4,3.1-7.6,6.1-10.6
			C53.1,128.2,54,127.5,54.9,126.8z"/>
	</g>
	<g>
		<linearGradient id="SVGID_4_" gradientUnits="userSpaceOnUse" x1="102.2722" y1="169.3871" x2="173.6115" y2="72.947">
			<stop  offset="0" style="stop-color:#FF7700"/>
			<stop  offset="0.7423" style="stop-color:#FF3554"/>
		</linearGradient>
		<path class="st4" d="M171.6,90.8l10.4-7.8l-1.5-2.1c-3.6-4.8-9.1-7.3-14.7-7.3c-3.9,0-7.7,1.2-11.1,3.7l-0.1,0
			c1.3,0.7,2.7,1.4,3.9,2.2C164,82.8,168.4,86.6,171.6,90.8z"/>
	</g>
	<g>
		<linearGradient id="SVGID_5_" gradientUnits="userSpaceOnUse" x1="124.4213" y1="185.7714" x2="195.7606" y2="89.3312">
			<stop  offset="0" style="stop-color:#FF7700"/>
			<stop  offset="0.7423" style="stop-color:#FF3554"/>
		</linearGradient>
		<path class="st5" d="M192.1,110.2c0-10.2-8.3-18.4-18.4-18.4h-1.3c3.8,5.2,5.7,11,5.7,16.9c0,1.2-0.1,2.4-0.3,3.6
			c-0.7,5.1-2.9,10-6.3,14.5c0.9,0.7,1.8,1.4,2.6,2.2c3,3,5.1,6.6,6.1,10.6l1.1-1.5c3-3.9,4.3-8.8,3.6-13.6
			c-0.6-4.6-2.9-8.8-6.5-11.7l13.7,0V110.2z"/>
	</g>
	<g>
		<linearGradient id="SVGID_6_" gradientUnits="userSpaceOnUse" x1="39.05" y1="122.6201" x2="110.3893" y2="26.1799">
			<stop  offset="0" style="stop-color:#FF7700"/>
			<stop  offset="0.7423" style="stop-color:#FF3554"/>
		</linearGradient>
		<path class="st6" d="M91,70.8c10.2,0,18.4-8.3,18.4-18.4c0-10.2-8.3-18.4-18.4-18.4c-10.2,0-18.4,8.3-18.4,18.4
			C72.6,62.5,80.9,70.8,91,70.8z M91,42.3C91,42.3,91.1,42.3,91,42.3c-1.2,1.3-2,3.1-2,5.1c0,3.9,3.2,7.1,7.1,7.1
			c2,0,3.8-0.8,5.1-2.1c0,0,0,0.1,0,0.1c0,5.6-4.5,10.1-10.1,10.1c-5.6,0-10.1-4.5-10.1-10.1C80.9,46.8,85.4,42.3,91,42.3z"/>
	</g>
	<g>
		<linearGradient id="SVGID_7_" gradientUnits="userSpaceOnUse" x1="67.698" y1="143.8117" x2="139.0373" y2="47.3715">
			<stop  offset="0" style="stop-color:#FF7700"/>
			<stop  offset="0.7423" style="stop-color:#FF3554"/>
		</linearGradient>
		<path class="st7" d="M135.3,70.8c10.2,0,18.4-8.3,18.4-18.4c0-10.2-8.3-18.4-18.4-18.4c-10.2,0-18.4,8.3-18.4,18.4
			C116.9,62.5,125.2,70.8,135.3,70.8z M135.3,42.3C135.4,42.3,135.4,42.3,135.3,42.3c-1.2,1.3-2,3.1-2,5.1c0,3.9,3.2,7.1,7.1,7.1
			c2,0,3.8-0.8,5.1-2.1c0,0,0,0.1,0,0.1c0,5.6-4.5,10.1-10.1,10.1c-5.6,0-10.1-4.5-10.1-10.1C125.2,46.8,129.8,42.3,135.3,42.3z"/>
	</g>
	<g>
		<linearGradient id="SVGID_8_" gradientUnits="userSpaceOnUse" x1="69.0559" y1="144.8161" x2="140.3952" y2="48.376">
			<stop  offset="0" style="stop-color:#FF7700"/>
			<stop  offset="0.7423" style="stop-color:#FF3554"/>
		</linearGradient>
		<path class="st8" d="M69,127.2c-10.2,0-18.4,8.2-18.4,18.4c0,10.2,8.2,18.4,18.4,18.4c2.1,0,4.2-0.4,6.1-1
			c-0.2-0.2-0.4-0.3-0.5-0.5c-5.3-5.3-7.2-12.2-4-15.3c3.1-3.1,10-1.3,15.3,4c0.2,0.2,0.3,0.4,0.5,0.5c0.7-1.9,1.1-3.9,1.1-6.1
			C87.4,135.5,79.1,127.2,69,127.2z"/>
	</g>
	<g>
		<linearGradient id="SVGID_9_" gradientUnits="userSpaceOnUse" x1="126.5544" y1="187.3493" x2="197.8937" y2="90.9092">
			<stop  offset="0" style="stop-color:#FF7700"/>
			<stop  offset="0.7423" style="stop-color:#FF3554"/>
		</linearGradient>
		<path class="st9" d="M157.4,127.2c-10.2,0-18.4,8.2-18.4,18.4c0,2.1,0.4,4.2,1.1,6.1c0.2-0.2,0.3-0.4,0.5-0.5
			c5.3-5.3,12.2-7.2,15.3-4c3.1,3.1,1.3,10-4,15.3c-0.2,0.2-0.3,0.3-0.5,0.5c1.9,0.7,3.9,1,6.1,1c10.2,0,18.4-8.2,18.4-18.4
			C175.8,135.5,167.6,127.2,157.4,127.2z"/>
	</g>
</g>
</svg>
